<svg xmlns="http://www.w3.org/2000/svg" width="18.463" height="18.5" viewBox="0 0 18.463 18.5">
  <g id="Group_334" data-name="Group 334" transform="translate(-22.227 -975.112)" opacity="0.75">
    <path id="Path_26" data-name="Path 26" d="M24.09,23a1.469,1.469,0,0,0-1.045.46,1.517,1.517,0,0,0-.464,1.062c-.171,11.155-.2,12.169,0,14.95a1.514,1.514,0,0,0,.456,1.062A1.488,1.488,0,0,0,24.09,41H38.931a1.483,1.483,0,0,0,1.045-.467,1.5,1.5,0,0,0,.464-1.054V24.521a1.517,1.517,0,0,0-.464-1.062A1.469,1.469,0,0,0,38.931,23H24.09Zm0,1.014H38.931a.545.545,0,0,1,.338.166.553.553,0,0,1,.165.341V39.479a.581.581,0,0,1-.5.507H24.09a.554.554,0,0,1-.338-.174.547.547,0,0,1-.165-.341V24.521a.553.553,0,0,1,.165-.341A.545.545,0,0,1,24.09,24.014Zm6.791,3.8a4.588,4.588,0,0,0-2.256,8.548.5.5,0,0,0,.536.034.509.509,0,0,0-.048-.914,3.553,3.553,0,1,1,5.227-3.747l-1.454-.816a.5.5,0,0,0-.684.2.509.509,0,0,0,.2.689l2.264,1.268a.5.5,0,0,0,.684-.2L36.6,30.6a.51.51,0,0,0-.011-.531.5.5,0,0,0-.869.04l-.519.935A4.539,4.539,0,0,0,30.882,27.817Z" transform="translate(0 952.362)" fill="#e5e5e5" stroke="#e5e5e5" stroke-width="0.5"/>
  </g>
</svg>
