<svg xmlns="http://www.w3.org/2000/svg" width="18.5" height="23.643" viewBox="0 0 18.5 23.643">
  <g id="Group_325" data-name="Group 325" transform="translate(-636.449 -398.077)" opacity="0.75">
    <g id="Group_324" data-name="Group 324" transform="translate(636.699 398.327)">
      <path id="Path_11" data-name="Path 11" d="M16.543,957.362A1.551,1.551,0,0,0,15,958.9v20.057a1.551,1.551,0,0,0,1.543,1.543H31.457A1.551,1.551,0,0,0,33,978.962V958.9a1.551,1.551,0,0,0-1.543-1.543Zm0,1.029H31.457a.5.5,0,0,1,.514.514v20.057a.5.5,0,0,1-.514.514H16.543a.5.5,0,0,1-.514-.514V958.9A.5.5,0,0,1,16.543,958.391Zm2.057,2.571a.514.514,0,1,0,0,1.029H29.4a.514.514,0,1,0,0-1.029Zm0,4.629a.514.514,0,1,0,0,1.029H29.4a.514.514,0,1,0,0-1.029Zm0,4.629a.514.514,0,1,0,0,1.029H29.4a.514.514,0,1,0,0-1.029Zm0,4.628a.514.514,0,1,0,0,1.029h4.371a.514.514,0,1,0,0-1.029Z" transform="translate(-15 -957.362)" fill="#e5e5e5" stroke="#e5e5e5" stroke-width="0.5"/>
    </g>
  </g>
</svg>
