<svg xmlns="http://www.w3.org/2000/svg" width="18" height="17" viewBox="0 0 18 17">
  <path id="Path_14" data-name="Path 14" d="M56.875,10a5.761,5.761,0,0,0-5.707,5.813v.546h-1.2a2.131,2.131,0,0,0-2.1,2.136V23.19a2.131,2.131,0,0,0,2.1,2.136h1.976a.788.788,0,0,0,.78-.795V15.813a4.147,4.147,0,1,1,8.293,0v8.21l-3.159,1.453a.8.8,0,0,0-.39,1.056.777.777,0,0,0,1.037.4l3.463-1.6h1.8a2.131,2.131,0,0,0,2.1-2.136V18.5a2.131,2.131,0,0,0-2.1-2.136h-1.2v-.546A5.761,5.761,0,0,0,56.875,10Zm-6.9,7.949h1.2v5.788h-1.2a.525.525,0,0,1-.537-.546V18.5A.525.525,0,0,1,49.973,17.949Zm12.61,0h1.2a.525.525,0,0,1,.537.546V23.19a.525.525,0,0,1-.537.546h-1.2Z" transform="translate(-47.875 -10)" fill="#e5e5e5" opacity="0.75"/>
</svg>
