<?xml version="1.0" standalone="no"?>
<!DOCTYPE svg PUBLIC "-//W3C//DTD SVG 20010904//EN"
 "http://www.w3.org/TR/2001/REC-SVG-20010904/DTD/svg10.dtd">
<svg version="1.0" xmlns="http://www.w3.org/2000/svg"
 width="300.000000pt" height="375.000000pt" viewBox="0 0 300.000000 375.000000"
 preserveAspectRatio="xMidYMid meet">
<metadata>
Created by potrace 1.15, written by Peter Selinger 2001-2017
</metadata>
<g transform="translate(0.000000,375.000000) scale(0.100000,-0.100000)"
fill="#000000" stroke="none">
<path d="M1315 3273 c-49 -12 -70 -59 -42 -97 11 -15 36 -18 222 -20 224 -3
287 -13 447 -71 409 -148 731 -519 818 -943 91 -447 -47 -889 -376 -1202 -161
-154 -350 -257 -579 -317 -90 -23 -121 -26 -310 -29 -186 -2 -211 -5 -222 -20
-19 -26 -16 -58 8 -80 18 -17 41 -19 177 -22 222 -5 358 17 547 89 447 171
774 559 876 1040 32 149 32 401 0 548 -126 586 -576 1021 -1156 1116 -85 14
-363 19 -410 8z"/>
<path d="M855 3127 c-121 -64 -221 -130 -235 -157 -17 -31 -2 -67 32 -79 34
-12 35 -12 133 54 39 26 106 65 150 87 108 52 129 84 85 128 -30 30 -55 25
-165 -33z"/>
<path d="M355 2693 c-25 -32 -73 -113 -107 -180 -55 -108 -60 -125 -50 -147
13 -30 51 -42 80 -27 11 6 40 52 65 103 25 51 68 124 96 163 28 38 51 77 51
85 0 30 -30 60 -60 60 -24 0 -38 -11 -75 -57z"/>
<path d="M2040 2383 c-8 -3 -171 -161 -362 -352 l-348 -346 -178 178 c-164
163 -180 177 -213 177 -58 0 -92 -56 -65 -107 23 -45 408 -421 437 -428 17 -4
38 -1 55 8 42 22 751 737 763 770 21 56 -35 119 -89 100z"/>
<path d="M121 2091 c-24 -24 -36 -154 -27 -300 7 -120 21 -151 65 -151 52 0
56 14 56 237 0 193 -1 206 -20 219 -27 19 -51 18 -74 -5z"/>
<path d="M210 1400 c-11 -11 -20 -28 -20 -38 0 -55 174 -347 217 -363 38 -14
82 14 83 52 0 9 -25 54 -55 100 -31 46 -72 118 -92 159 -20 41 -43 83 -51 93
-20 23 -57 22 -82 -3z"/>
<path d="M636 844 c-22 -22 -20 -60 5 -85 54 -54 298 -189 342 -189 27 0 57
28 57 52 0 36 -17 51 -104 95 -50 25 -123 67 -163 94 -75 51 -111 60 -137 33z"/>
</g>
</svg>
