<svg xmlns="http://www.w3.org/2000/svg" width="23.006" height="23.007" viewBox="0 0 23.006 23.007">
  <g id="Group_387" data-name="Group 387" transform="translate(-469.413 -312.398)">
    <g id="Group_330" data-name="Group 330" transform="translate(469.916 312.905)">
      <path id="Path_18" data-name="Path 18" d="M18.417,16.3a2.117,2.117,0,1,0,2.117,2.117A2.118,2.118,0,0,0,18.417,16.3Zm0,3.685a1.585,1.585,0,0,1-1.567-1.567,1.567,1.567,0,0,1,1.567-1.567,1.567,1.567,0,0,1,0,3.135Z" transform="translate(-7.417 -7.414)" fill="#fff" stroke="#fff" stroke-width="1"/>
      <path id="Path_19" data-name="Path 19" d="M19.085,12.954V11.747a.394.394,0,0,0-.292-.366l-.731-.11a6.1,6.1,0,0,0-.914-2.2l.439-.622a.388.388,0,0,0-.037-.476l-.841-.842a.383.383,0,0,0-.475-.037l-.621.439a5.825,5.825,0,0,0-2.193-.915l-.11-.732a.356.356,0,0,0-.365-.293H11.739a.394.394,0,0,0-.365.293l-.11.732a6.082,6.082,0,0,0-2.193.915L8.45,7.1a.387.387,0,0,0-.475.037l-.841.842a.384.384,0,0,0-.037.476l.439.622a5.839,5.839,0,0,0-.914,2.2l-.731.11a.356.356,0,0,0-.292.366v1.207a.394.394,0,0,0,.292.366l.731.11a6.1,6.1,0,0,0,.914,2.2l-.439.622a.388.388,0,0,0,.037.476l.841.842a.383.383,0,0,0,.475.037l.621-.439a5.825,5.825,0,0,0,2.193.915l.11.732a.356.356,0,0,0,.365.293h1.206a.394.394,0,0,0,.365-.293l.11-.732a6.082,6.082,0,0,0,2.193-.915l.621.439a.387.387,0,0,0,.475-.037l.841-.842a.384.384,0,0,0,.037-.476l-.439-.622a5.839,5.839,0,0,0,.914-2.2l.731-.11A.434.434,0,0,0,19.085,12.954Zm-1.718.073a5.059,5.059,0,0,1-.95,2.342.333.333,0,0,0,0,.439l.4.585-.4.4-.585-.4a.333.333,0,0,0-.439,0,5.046,5.046,0,0,1-2.339.951c-.146.037-.292.146-.292.293l-.11.7h-.585l-.11-.7c-.037-.146-.146-.293-.292-.293a5.046,5.046,0,0,1-2.339-.951.332.332,0,0,0-.439,0l-.585.4-.4-.4.4-.585a.334.334,0,0,0,0-.439,5.059,5.059,0,0,1-.95-2.342c-.037-.146-.146-.293-.292-.293l-.694-.11v-.585l.694-.11c.146-.037.292-.146.292-.293A5.059,5.059,0,0,1,8.3,9.3a.333.333,0,0,0,0-.439l-.4-.585.4-.4.585.4a.333.333,0,0,0,.439,0,5.047,5.047,0,0,1,2.339-.951c.146-.037.292-.146.292-.293l.11-.7h.585l.11.7c.037.146.146.293.292.293a5.047,5.047,0,0,1,2.339.951.332.332,0,0,0,.439,0l.585-.4.4.4-.4.585a.334.334,0,0,0,0,.439,5.059,5.059,0,0,1,.95,2.342c.037.146.146.293.292.293l.694.11v.585l-.694.11C17.513,12.771,17.367,12.881,17.367,13.027Z" transform="translate(-1.32 -1.325)" fill="#fff" stroke="#fff" stroke-width="1"/>
      <path id="Path_20" data-name="Path 20" d="M23.63,3.188A10.99,10.99,0,0,0,10.4,1.453l.319-.821a.475.475,0,0,0-.274-.593.475.475,0,0,0-.593.274l-.776,2.1c-.091.365.091.548.411.639l2.282.091h0a.456.456,0,1,0,0-.913l-.821-.046A10.053,10.053,0,0,1,23.858,17.061a.446.446,0,0,0,.091.639.483.483,0,0,0,.639-.091A10.992,10.992,0,0,0,23.63,3.188Z" transform="translate(-4.837 0.013)" fill="#fff" stroke="#fff" stroke-width="1"/>
      <path id="Path_21" data-name="Path 21" d="M17.737,24.074c0-.046-.046-.091-.046-.137a.415.415,0,0,0-.365-.183l-2.282-.091h0a.456.456,0,1,0,0,.913l.821.046A10.053,10.053,0,0,1,2.951,9.744a.446.446,0,0,0-.091-.639.491.491,0,0,0-.639.091,10.95,10.95,0,0,0,8.716,17.615,11.186,11.186,0,0,0,5.476-1.46l-.319.821a.475.475,0,0,0,.274.593c.046,0,.091.046.137.046a.4.4,0,0,0,.411-.274,11.02,11.02,0,0,0,.821-2.464Z" transform="translate(0.028 -4.812)" fill="#fff" stroke="#fff" stroke-width="1"/>
    </g>
  </g>
</svg>
