<svg xmlns="http://www.w3.org/2000/svg" width="20.5" height="22.5" viewBox="0 0 20.5 22.5">
  <g id="Group_451" data-name="Group 451" transform="translate(-596.129 -621.75)">
    <path id="Path_45" data-name="Path 45" d="M9.381,46.863H6.764a.386.386,0,0,0,0,.771H9.381Z" transform="translate(590 584.361)" stroke="#111" stroke-width="0.5"/>
    <path id="Path_46" data-name="Path 46" d="M82.538,46.862H79.922v.771h2.616a.386.386,0,0,0,0-.771Z" transform="translate(533.455 584.362)" stroke="#111" stroke-width="0.5"/>
    <path id="Path_47" data-name="Path 47" d="M49.011,5.386a.386.386,0,1,0-.771,0V8h.771V5.386Z" transform="translate(557.753 617)" stroke="#111" stroke-width="0.5"/>
    <path id="Path_49" data-name="Path 49" d="M26.857,29.86a6.571,6.571,0,0,0,1.456,3.592,9.234,9.234,0,0,1,1.528,3.162h-.062a.413.413,0,1,0,0,.825h5.182a.413.413,0,1,0,0-.825H34.9a9.22,9.22,0,0,1,1.528-3.162,6.57,6.57,0,0,0,1.455-3.591,5.332,5.332,0,0,0-5.512-5.118A5.332,5.332,0,0,0,26.857,29.86Zm5.513-4.454a4.641,4.641,0,0,1,4.8,4.454,6.111,6.111,0,0,1-1.351,3.248,9.665,9.665,0,0,0-1.625,3.406.308.308,0,0,0,0,.1H30.55a.3.3,0,0,0,0-.1,9.67,9.67,0,0,0-1.625-3.406,6.107,6.107,0,0,1-1.351-3.247A4.641,4.641,0,0,1,32.37,25.405Z" transform="translate(574.009 601.584)" stroke="#111" stroke-width="0.5"/>
    <path id="Path_50" data-name="Path 50" d="M18.753,70.933a.385.385,0,0,0,.545,0l1.85-1.85-.545-.545-1.85,1.85A.385.385,0,0,0,18.753,70.933Z" transform="translate(580.426 567.468)" stroke="#111" stroke-width="0.5"/>
    <path id="Path_51" data-name="Path 51" d="M72.31,17.374a.385.385,0,0,0-.545,0l-1.85,1.85.545.545,1.85-1.85A.386.386,0,0,0,72.31,17.374Z" transform="translate(541.269 607.426)" stroke="#111" stroke-width="0.5"/>
    <path id="Path_52" data-name="Path 52" d="M71.765,70.932a.386.386,0,0,0,.545-.545l-1.85-1.85-.545.545Z" transform="translate(541.269 567.469)" stroke="#111" stroke-width="0.5"/>
    <path id="Path_53" data-name="Path 53" d="M18.753,17.374a.386.386,0,0,0,0,.545l1.85,1.85.545-.545-1.85-1.85A.385.385,0,0,0,18.753,17.374Z" transform="translate(580.426 607.426)" stroke="#111" stroke-width="0.5"/>
    <path id="Path_54" data-name="Path 54" d="M42.842,85.255a.408.408,0,0,0-.409-.408H37.666a.409.409,0,1,0,0,.817h4.767A.409.409,0,0,0,42.842,85.255Z" transform="translate(566.33 555.847)" stroke="#111" stroke-width="0.5"/>
    <path id="Path_55" data-name="Path 55" d="M41.81,91.271a.409.409,0,1,0,0,.817H44.76a.409.409,0,1,0,0-.817Z" transform="translate(563.094 551.912)" stroke="#111" stroke-width="0.5"/>
  </g>
</svg>
