<svg xmlns="http://www.w3.org/2000/svg" width="22.5" height="22.5" viewBox="0 0 22.5 22.5">
  <path id="Path_44" data-name="Path 44" d="M26.681,26.247a.411.411,0,1,1-.821,0,5.05,5.05,0,0,0-10.1,0,.411.411,0,1,1-.821,0,5.87,5.87,0,1,1,11.74,0ZM31.81,20.81a11,11,0,1,1-11-11,11,11,0,0,1,11,11Zm-.821,0A10.179,10.179,0,1,0,20.81,30.989,10.179,10.179,0,0,0,30.989,20.81ZM15.705,19.639a1.727,1.727,0,1,1,1.727-1.727A1.727,1.727,0,0,1,15.705,19.639Zm0-.821a.906.906,0,1,0-.648-.261.906.906,0,0,0,.648.261Zm11.947-.906a1.727,1.727,0,1,1-1.727-1.727A1.727,1.727,0,0,1,27.652,17.912Zm-.821,0a.906.906,0,1,0-.906.906A.906.906,0,0,0,26.831,17.912Z" transform="translate(-9.56 -9.56)" fill="#111" stroke="#111" stroke-width="0.5"/>
</svg>
