<svg xmlns="http://www.w3.org/2000/svg" width="18.1" height="18.111" viewBox="0 0 18.1 18.111">
  <g id="Group_329" data-name="Group 329" transform="translate(-892.951 -406.944)" opacity="0.75">
    <path id="Path_16" data-name="Path 16" d="M19,6.143a.643.643,0,0,0-.338-.566l-8.357-4.5a.643.643,0,0,0-.609,0l-8.357,4.5a.643.643,0,0,0,0,1.131L3.87,8.072,1.339,9.435a.643.643,0,0,0,0,1.131L3.87,11.929,1.339,13.292a.643.643,0,0,0,0,1.131l8.357,4.5a.643.643,0,0,0,.609,0l8.357-4.5a.643.643,0,0,0,0-1.131l-2.531-1.363,2.531-1.363a.643.643,0,0,0,0-1.131L16.132,8.072l2.531-1.363A.643.643,0,0,0,19,6.143Zm-4.224,6.516L17,13.858l-7,3.77-7-3.77,2.226-1.2L9.7,15.066a.643.643,0,0,0,.609,0Zm0-3.857L17,10l-7,3.77L3,10,5.225,8.8,9.7,11.209a.643.643,0,0,0,.609,0ZM10,9.913,3,6.143l7-3.77,7,3.77Z" transform="translate(892 406)" fill="#e5e5e5" stroke="#e5e5e5" stroke-width="0.1"/>
  </g>
</svg>
