<svg xmlns="http://www.w3.org/2000/svg" width="18.5" height="18.5" viewBox="0 0 18.5 18.5">
  <g id="Group_323" data-name="Group 323" transform="translate(-20.109 -162.75)" opacity="0.75">
    <path id="Path_5" data-name="Path 5" d="M6.572,5.684H1.243A1.245,1.245,0,0,1,0,4.44v-3.2A1.245,1.245,0,0,1,1.243,0H6.572A1.245,1.245,0,0,1,7.815,1.243v3.2A1.245,1.245,0,0,1,6.572,5.684ZM1.243,1.066a.178.178,0,0,0-.178.178v3.2a.178.178,0,0,0,.178.178H6.572a.178.178,0,0,0,.178-.178v-3.2a.178.178,0,0,0-.178-.178Zm0,0" transform="translate(20.359 163)" fill="#e5e5e5" stroke="#e5e5e5" stroke-width="0.5"/>
    <path id="Path_6" data-name="Path 6" d="M6.572,223.278H1.243A1.245,1.245,0,0,1,0,222.035v-7.46a1.245,1.245,0,0,1,1.243-1.243H6.572a1.245,1.245,0,0,1,1.243,1.243v7.46A1.245,1.245,0,0,1,6.572,223.278ZM1.243,214.4a.178.178,0,0,0-.178.178v7.46a.178.178,0,0,0,.178.178H6.572a.178.178,0,0,0,.178-.178v-7.46a.178.178,0,0,0-.178-.178Zm0,0" transform="translate(20.359 -42.278)" fill="#e5e5e5" stroke="#e5e5e5" stroke-width="0.5"/>
    <path id="Path_7" data-name="Path 7" d="M283.9,347.016h-5.328a1.245,1.245,0,0,1-1.243-1.243v-3.2a1.245,1.245,0,0,1,1.243-1.243H283.9a1.245,1.245,0,0,1,1.243,1.243v3.2A1.245,1.245,0,0,1,283.9,347.016Zm-5.328-4.618a.178.178,0,0,0-.178.178v3.2a.178.178,0,0,0,.178.178H283.9a.178.178,0,0,0,.178-.178v-3.2a.178.178,0,0,0-.178-.178Zm0,0" transform="translate(-246.788 -166.016)" fill="#e5e5e5" stroke="#e5e5e5" stroke-width="0.5"/>
    <path id="Path_8" data-name="Path 8" d="M283.9,9.946h-5.328A1.245,1.245,0,0,1,277.332,8.7V1.243A1.245,1.245,0,0,1,278.575,0H283.9a1.245,1.245,0,0,1,1.243,1.243V8.7A1.245,1.245,0,0,1,283.9,9.946Zm-5.328-8.881a.178.178,0,0,0-.178.178V8.7a.178.178,0,0,0,.178.178H283.9a.178.178,0,0,0,.178-.178V1.243a.178.178,0,0,0-.178-.178Zm0,0" transform="translate(-246.788 163)" fill="#e5e5e5" stroke="#e5e5e5" stroke-width="0.5"/>
  </g>
</svg>
